<svg width="32" height="32" viewBox="0 0 32 32" fill="none" xmlns="http://www.w3.org/2000/svg">
<circle cx="16" cy="16" r="15.5" fill="#F4F0EA" stroke="#AFA38F"/>
<path d="M19.5842 11.3566C18.9111 11.3564 18.2415 11.4543 17.5967 11.6472C17.3238 11.1668 16.972 10.7358 16.556 10.3722L17.5404 8.96596C17.6246 8.84237 17.657 8.69073 17.6307 8.54353C17.6044 8.39633 17.5215 8.26528 17.3998 8.17846C17.2777 8.09481 17.1275 8.06265 16.9818 8.08898C16.8362 8.1153 16.7068 8.19798 16.6217 8.31909L15.6373 9.72534C14.7984 9.26478 13.8454 9.05337 12.8904 9.11596L12.5904 7.42846C12.5565 7.29044 12.4717 7.17036 12.3529 7.09235C12.2341 7.01433 12.0902 6.98416 11.9501 7.00791C11.81 7.03166 11.6841 7.10756 11.5976 7.22036C11.5112 7.33316 11.4707 7.47449 11.4842 7.61596L11.7842 9.31284C10.8632 9.57365 10.0386 10.0983 9.41229 10.8222L8.00604 9.83784C7.94597 9.79095 7.877 9.75675 7.80331 9.73733C7.72962 9.7179 7.65276 9.71365 7.57738 9.72484C7.502 9.73602 7.42968 9.7624 7.36481 9.80238C7.29993 9.84236 7.24386 9.89511 7.19999 9.95742C7.15612 10.0197 7.12537 10.0903 7.1096 10.1649C7.09383 10.2394 7.09337 10.3164 7.10826 10.3911C7.12314 10.4659 7.15306 10.5368 7.19619 10.5996C7.23932 10.6624 7.29477 10.7158 7.35916 10.7566L8.76541 11.741C8.30436 12.5797 8.09292 13.5328 8.15604 14.4878L6.46854 14.7878C6.39543 14.7991 6.32534 14.825 6.26241 14.8639C6.19947 14.9028 6.14498 14.9539 6.10215 15.0142C6.05932 15.0745 6.02902 15.1428 6.01305 15.215C5.99707 15.2873 5.99575 15.362 6.00916 15.4347C6.03127 15.5655 6.09891 15.6843 6.20013 15.7701C6.30134 15.8559 6.42962 15.9031 6.56229 15.9035H6.65604L8.35291 15.6035C8.49938 16.1072 8.72399 16.5849 9.01854 17.0191C8.50982 17.4548 8.10146 17.9955 7.82149 18.6039C7.54153 19.2124 7.3966 19.8743 7.39666 20.5441C7.39666 21.1597 7.51791 21.7692 7.75348 22.3379C7.98905 22.9066 8.33432 23.4234 8.7696 23.8587C9.64868 24.7377 10.841 25.2316 12.0842 25.2316H19.5842C21.4241 25.2316 23.1887 24.5007 24.4897 23.1996C25.7907 21.8986 26.5217 20.134 26.5217 18.2941C26.5217 16.4541 25.7907 14.6896 24.4897 13.3885C23.1887 12.0875 21.4241 11.3566 19.5842 11.3566ZM9.33729 14.8628H9.32791V14.8441C9.1487 13.8219 9.38125 12.7704 9.97479 11.9191H9.98416C9.98416 11.9097 9.99354 11.9097 9.99354 11.9003C10.2884 11.4818 10.6629 11.1256 11.0956 10.8521C11.5284 10.5787 12.0109 10.3933 12.5154 10.3066C12.5154 10.3041 12.5164 10.3017 12.5182 10.3C12.5199 10.2982 12.5223 10.2972 12.5248 10.2972H12.5435C13.5468 10.1246 14.578 10.3463 15.4217 10.916L15.4685 10.9535L15.506 10.9816C15.9162 11.2747 16.2663 11.6439 16.5373 12.0691C14.914 12.8689 13.6639 14.2668 13.0498 15.9691C12.7326 15.8987 12.409 15.861 12.0842 15.8566C11.3408 15.8558 10.608 16.0326 9.94666 16.3722C9.63707 15.9189 9.4292 15.404 9.33729 14.8628ZM19.5842 24.1066H12.0842C11.1393 24.1066 10.2332 23.7313 9.56509 23.0632C8.897 22.3951 8.52166 21.4889 8.52166 20.5441C8.52166 19.5993 8.897 18.6931 9.56509 18.025C10.2332 17.3569 11.1393 16.9816 12.0842 16.9816C12.3108 16.9802 12.537 17.0021 12.7592 17.0472C12.6837 17.4585 12.646 17.8759 12.6467 18.2941C12.6467 18.4433 12.7059 18.5863 12.8114 18.6918C12.9169 18.7973 13.06 18.8566 13.2092 18.8566C13.3583 18.8566 13.5014 18.7973 13.6069 18.6918C13.7124 18.5863 13.7717 18.4433 13.7717 18.2941C13.7717 17.1445 14.1126 16.0207 14.7512 15.0648C15.3899 14.109 16.2977 13.364 17.3598 12.924C18.4219 12.4841 19.5906 12.369 20.7181 12.5933C21.8456 12.8175 22.8813 13.3711 23.6942 14.184C24.5071 14.9969 25.0607 16.0326 25.285 17.1601C25.5093 18.2876 25.3941 19.4563 24.9542 20.5184C24.5143 21.5805 23.7693 22.4883 22.8134 23.127C21.8576 23.7657 20.7338 24.1066 19.5842 24.1066Z" fill="#877E6E"/>
</svg>
