<svg width="32" height="32" viewBox="0 0 32 32" fill="none" xmlns="http://www.w3.org/2000/svg">
<circle cx="16" cy="16" r="15.5" fill="#F4F0EA" stroke="#AFA38F"/>
<path d="M18.9344 23.0593L16.4688 26.8093C16.417 26.8864 16.3473 26.9497 16.2656 26.9938C16.184 27.0379 16.0928 27.0615 16 27.0624C15.8898 27.0633 15.7819 27.0306 15.6906 26.9687C15.5665 26.8865 15.48 26.7584 15.4501 26.6126C15.4203 26.4667 15.4494 26.315 15.5312 26.1906L17.9875 22.4406C18.0696 22.315 18.1981 22.2272 18.3449 22.1964C18.4917 22.1656 18.6447 22.1945 18.7703 22.2765C18.8959 22.3586 18.9837 22.4871 19.0145 22.6339C19.0452 22.7807 19.0164 22.9338 18.9344 23.0593ZM25.5625 12.6249C25.56 14.4641 24.8283 16.2273 23.5278 17.5278C22.2273 18.8283 20.4642 19.56 18.625 19.5624H16.5156L13.7313 23.8093C13.6775 23.8866 13.606 23.9498 13.5229 23.9938C13.4397 24.0379 13.3472 24.0614 13.2531 24.0624C13.1458 24.0632 13.0409 24.0304 12.9531 23.9687C12.8909 23.9287 12.8372 23.8769 12.795 23.8161C12.7528 23.7554 12.7231 23.6869 12.7074 23.6146C12.6917 23.5424 12.6904 23.4677 12.7037 23.3949C12.7169 23.3222 12.7443 23.2527 12.7844 23.1906L15.1656 19.5624H11.125C9.8818 19.5624 8.68951 19.0686 7.81044 18.1895C6.93136 17.3104 6.4375 16.1181 6.4375 14.8749C6.4375 13.6317 6.93136 12.4395 7.81044 11.5604C8.68951 10.6813 9.8818 10.1874 11.125 10.1874C11.4496 10.1888 11.7731 10.2233 12.0906 10.2906C12.6399 8.75036 13.7156 7.45368 15.1279 6.62939C16.5402 5.80509 18.1982 5.50616 19.8095 5.78535C21.4207 6.06454 22.8815 6.9039 23.9341 8.1553C24.9867 9.40671 25.5634 10.9897 25.5625 12.6249ZM24.4375 12.6249C24.4375 11.0834 23.8251 9.60494 22.7351 8.51489C21.645 7.42483 20.1666 6.81245 18.625 6.81245C17.0834 6.81245 15.605 7.42483 14.5149 8.51489C13.4249 9.60494 12.8125 11.0834 12.8125 12.6249C12.8125 12.7741 12.7532 12.9172 12.6477 13.0227C12.5423 13.1282 12.3992 13.1874 12.25 13.1874C12.1008 13.1874 11.9577 13.1282 11.8523 13.0227C11.7468 12.9172 11.6875 12.7741 11.6875 12.6249C11.6869 12.2068 11.7245 11.7894 11.8 11.3781C11.5779 11.333 11.3517 11.311 11.125 11.3124C10.1802 11.3124 9.27403 11.6878 8.60593 12.3559C7.93783 13.024 7.5625 13.9301 7.5625 14.8749C7.5625 15.8198 7.93783 16.7259 8.60593 17.394C9.27403 18.0621 10.1802 18.4374 11.125 18.4374H18.625C20.1658 18.435 21.6428 17.8218 22.7323 16.7323C23.8218 15.6427 24.435 14.1658 24.4375 12.6249Z" fill="#877E6E"/>
</svg>
