<svg width="32" height="32" viewBox="0 0 32 32" fill="none" xmlns="http://www.w3.org/2000/svg">
<circle cx="16" cy="16" r="15.5" fill="#F4F0EA" stroke="#AFA38F"/>
<path d="M7 11L10.5 13M25 21L21.5 19M16 16L10.5 13M16 16L10.5 19M16 16V9M16 16V22.5M16 16L21.5 19M16 16L21.5 13M16 6V9M16 26V22.5M25 11L21.5 13M7 21L10.5 19M10.5 13L7 14M10.5 13L10 9.5M10.5 19L7 18M10.5 19L10 22.5M16 9L13.5 8M16 9L18.5 8M16 22.5L18.5 24M16 22.5L13.5 24M21.5 19L22 22.5M21.5 19L25 18M21.5 13L25 14M21.5 13L22 9.5" stroke="#877E6E" stroke-width="1.2" stroke-linecap="round" stroke-linejoin="round"/>
</svg>
