<svg width="32" height="32" viewBox="0 0 32 32" fill="none" xmlns="http://www.w3.org/2000/svg">
<circle cx="16" cy="16" r="15.5" fill="#F4F0EA" stroke="#AFA38F"/>
<path d="M15.9375 9.75C14.7137 9.75 13.5174 10.1129 12.4999 10.7928C11.4824 11.4727 10.6893 12.439 10.221 13.5696C9.75268 14.7003 9.63015 15.9444 9.86889 17.1446C10.1076 18.3449 10.6969 19.4474 11.5623 20.3127C12.4276 21.1781 13.5301 21.7674 14.7304 22.0061C15.9306 22.2449 17.1747 22.1223 18.3054 21.654C19.436 21.1857 20.4023 20.3926 21.0822 19.3751C21.7621 18.3576 22.125 17.1613 22.125 15.9375C22.1225 14.2972 21.4698 12.7249 20.31 11.565C19.1501 10.4052 17.5778 9.75248 15.9375 9.75ZM15.9375 21C14.9362 21 13.9574 20.7031 13.1249 20.1468C12.2924 19.5905 11.6435 18.7999 11.2604 17.8748C10.8772 16.9498 10.7769 15.9319 10.9723 14.9499C11.1676 13.9678 11.6498 13.0658 12.3578 12.3578C13.0658 11.6498 13.9678 11.1676 14.9499 10.9723C15.9319 10.7769 16.9498 10.8772 17.8748 11.2604C18.7999 11.6435 19.5905 12.2924 20.1468 13.1249C20.7031 13.9574 21 14.9362 21 15.9375C21 17.2802 20.4666 18.5678 19.5172 19.5172C18.5678 20.4666 17.2802 21 15.9375 21ZM15.375 7.3125V6.5625C15.375 6.41332 15.4343 6.27024 15.5398 6.16475C15.6452 6.05926 15.7883 6 15.9375 6C16.0867 6 16.2298 6.05926 16.3352 6.16475C16.4407 6.27024 16.5 6.41332 16.5 6.5625V7.3125C16.5 7.46168 16.4407 7.60476 16.3352 7.71025C16.2298 7.81574 16.0867 7.875 15.9375 7.875C15.7883 7.875 15.6452 7.81574 15.5398 7.71025C15.4343 7.60476 15.375 7.46168 15.375 7.3125ZM8.90625 9.70312C8.80058 9.59745 8.74121 9.45413 8.74121 9.30469C8.74121 9.15524 8.80058 9.01192 8.90625 8.90625C9.01192 8.80058 9.15524 8.74121 9.30469 8.74121C9.45413 8.74121 9.59745 8.80058 9.70312 8.90625L10.2375 9.44063C10.3412 9.54735 10.3991 9.69028 10.3991 9.83906C10.3991 9.98785 10.3412 10.1308 10.2375 10.2375C10.1845 10.2898 10.1215 10.3309 10.0522 10.3583C9.98293 10.3857 9.90884 10.3988 9.83438 10.3969C9.76141 10.3981 9.68894 10.3846 9.62129 10.3572C9.55365 10.3298 9.4922 10.2891 9.44063 10.2375L8.90625 9.70312ZM7.875 15.9375C7.875 16.0867 7.81574 16.2298 7.71025 16.3352C7.60476 16.4407 7.46168 16.5 7.3125 16.5H6.5625C6.41332 16.5 6.27024 16.4407 6.16475 16.3352C6.05926 16.2298 6 16.0867 6 15.9375C6 15.7883 6.05926 15.6452 6.16475 15.5398C6.27024 15.4343 6.41332 15.375 6.5625 15.375H7.3125C7.46168 15.375 7.60476 15.4343 7.71025 15.5398C7.81574 15.6452 7.875 15.7883 7.875 15.9375ZM10.2375 21.6375C10.3412 21.7442 10.3991 21.8872 10.3991 22.0359C10.3991 22.1847 10.3412 22.3276 10.2375 22.4344L9.70312 22.9688C9.5972 23.0705 9.45622 23.1275 9.30937 23.1281C9.16001 23.1262 9.01655 23.0695 8.90625 22.9688C8.80259 22.862 8.74461 22.7191 8.74461 22.5703C8.74461 22.4215 8.80259 22.2786 8.90625 22.1719L9.44063 21.6375C9.54735 21.5338 9.69028 21.4759 9.83906 21.4759C9.98785 21.4759 10.1308 21.5338 10.2375 21.6375ZM16.5 24.5625V25.3125C16.5 25.4617 16.4407 25.6048 16.3352 25.7102C16.2298 25.8157 16.0867 25.875 15.9375 25.875C15.7883 25.875 15.6452 25.8157 15.5398 25.7102C15.4343 25.6048 15.375 25.4617 15.375 25.3125V24.5625C15.375 24.4133 15.4343 24.2702 15.5398 24.1648C15.6452 24.0593 15.7883 24 15.9375 24C16.0867 24 16.2298 24.0593 16.3352 24.1648C16.4407 24.2702 16.5 24.4133 16.5 24.5625ZM22.9688 22.1719C23.0724 22.2786 23.1304 22.4215 23.1304 22.5703C23.1304 22.7191 23.0724 22.862 22.9688 22.9688C22.8585 23.0695 22.715 23.1262 22.5656 23.1281C22.4188 23.1275 22.2778 23.0705 22.1719 22.9688L21.6375 22.4344C21.5318 22.3287 21.4725 22.1854 21.4725 22.0359C21.4725 21.8865 21.5318 21.7432 21.6375 21.6375C21.7432 21.5318 21.8865 21.4725 22.0359 21.4725C22.1854 21.4725 22.3287 21.5318 22.4344 21.6375L22.9688 22.1719ZM25.875 15.9375C25.875 16.0867 25.8157 16.2298 25.7102 16.3352C25.6048 16.4407 25.4617 16.5 25.3125 16.5H24.5625C24.4133 16.5 24.2702 16.4407 24.1648 16.3352C24.0593 16.2298 24 16.0867 24 15.9375C24 15.7883 24.0593 15.6452 24.1648 15.5398C24.2702 15.4343 24.4133 15.375 24.5625 15.375H25.3125C25.4617 15.375 25.6048 15.4343 25.7102 15.5398C25.8157 15.6452 25.875 15.7883 25.875 15.9375ZM22.9688 8.90625C23.0724 9.01298 23.1304 9.1559 23.1304 9.30469C23.1304 9.45347 23.0724 9.5964 22.9688 9.70312L22.4344 10.2375C22.3828 10.2891 22.3214 10.3298 22.2537 10.3572C22.1861 10.3846 22.1136 10.3981 22.0406 10.3969C21.9662 10.3988 21.8921 10.3857 21.8228 10.3583C21.7535 10.3309 21.6905 10.2898 21.6375 10.2375C21.5338 10.1308 21.4759 9.98785 21.4759 9.83906C21.4759 9.69028 21.5338 9.54735 21.6375 9.44063L22.1719 8.90625C22.2786 8.80259 22.4215 8.74461 22.5703 8.74461C22.7191 8.74461 22.862 8.80259 22.9688 8.90625Z" fill="#877E6E"/>
</svg>
