<svg width="32" height="32" viewBox="0 0 32 32" fill="none" xmlns="http://www.w3.org/2000/svg">
<circle cx="16" cy="16" r="15.5" fill="#F4F0EA" stroke="#AFA38F"/>
<path d="M21.0625 21.2499C21.0602 21.9082 20.827 22.5448 20.4037 23.0488C19.9803 23.5529 19.3935 23.8925 18.7456 24.0085C18.0976 24.1245 17.4295 24.0095 16.8576 23.6836C16.2856 23.3577 15.8462 22.8415 15.6156 22.2249C15.5767 22.089 15.5904 21.9434 15.654 21.8171C15.7177 21.6908 15.8265 21.5931 15.9589 21.5435C16.0913 21.4938 16.2375 21.4959 16.3685 21.5492C16.4995 21.6025 16.6056 21.7032 16.6656 21.8312C16.7719 22.1208 16.9555 22.3758 17.1966 22.5684C17.4376 22.7609 17.7268 22.8837 18.0328 22.9234C18.3388 22.9631 18.6497 22.9182 18.9319 22.7935C19.2141 22.6687 19.4567 22.4691 19.6334 22.2161C19.81 21.9632 19.914 21.6666 19.9338 21.3588C19.9537 21.0509 19.8889 20.7434 19.7462 20.4699C19.6036 20.1963 19.3887 19.967 19.1249 19.8071C18.8611 19.6471 18.5585 19.5625 18.25 19.5624H7.75C7.60082 19.5624 7.45774 19.5032 7.35225 19.3977C7.24676 19.2922 7.1875 19.1491 7.1875 18.9999C7.1875 18.8508 7.24676 18.7077 7.35225 18.6022C7.45774 18.4967 7.60082 18.4374 7.75 18.4374H18.25C18.9952 18.4399 19.7091 18.737 20.236 19.2639C20.7629 19.7908 21.06 20.5048 21.0625 21.2499ZM18.0625 10.7499C18.0602 10.0917 17.827 9.45509 17.4037 8.95103C16.9803 8.44698 16.3935 8.10738 15.7456 7.9914C15.0976 7.87541 14.4295 7.99038 13.8576 8.31628C13.2856 8.64218 12.8462 9.15836 12.6156 9.77494C12.5767 9.91088 12.5904 10.0565 12.654 10.1828C12.7177 10.3091 12.8265 10.4068 12.9589 10.4564C13.0913 10.5061 13.2375 10.504 13.3685 10.4507C13.4995 10.3974 13.6056 10.2967 13.6656 10.1687C13.7719 9.87905 13.9555 9.62408 14.1966 9.43151C14.4376 9.23895 14.7268 9.11614 15.0328 9.07646C15.3388 9.03677 15.6497 9.08173 15.9319 9.20643C16.2141 9.33113 16.4567 9.53081 16.6334 9.78376C16.81 10.0367 16.914 10.3332 16.9338 10.6411C16.9537 10.949 16.8889 11.2564 16.7462 11.53C16.6036 11.8036 16.3887 12.0328 16.1249 12.1928C15.8611 12.3528 15.5585 12.4374 15.25 12.4374H6.25C6.10082 12.4374 5.95774 12.4967 5.85225 12.6022C5.74676 12.7077 5.6875 12.8508 5.6875 12.9999C5.6875 13.1491 5.74676 13.2922 5.85225 13.3977C5.95774 13.5032 6.10082 13.5624 6.25 13.5624H15.25C15.9952 13.56 16.7091 13.2629 17.236 12.7359C17.7629 12.209 18.06 11.4951 18.0625 10.7499ZM23.5 10.9374C22.9261 10.9395 22.3666 11.1165 21.8959 11.4448C21.4252 11.7731 21.0658 12.2371 20.8656 12.7749C20.8267 12.9109 20.8404 13.0565 20.9041 13.1828C20.9677 13.3091 21.0765 13.4068 21.2089 13.4564C21.3413 13.5061 21.4875 13.504 21.6185 13.4507C21.7495 13.3974 21.8556 13.2967 21.9156 13.1687C22.0219 12.879 22.2055 12.6241 22.4466 12.4315C22.6876 12.2389 22.9768 12.1161 23.2828 12.0765C23.5888 12.0368 23.8997 12.0817 24.1819 12.2064C24.4641 12.3311 24.7067 12.5308 24.8834 12.7838C25.06 13.0367 25.164 13.3332 25.1838 13.6411C25.2037 13.949 25.1389 14.2564 24.9962 14.53C24.8536 14.8036 24.6387 15.0328 24.3749 15.1928C24.1111 15.3528 23.8085 15.4374 23.5 15.4374H7C6.85082 15.4374 6.70774 15.4967 6.60225 15.6022C6.49676 15.7077 6.4375 15.8508 6.4375 15.9999C6.4375 16.1491 6.49676 16.2922 6.60225 16.3977C6.70774 16.5032 6.85082 16.5624 7 16.5624H23.5C24.2459 16.5624 24.9613 16.2661 25.4887 15.7387C26.0162 15.2112 26.3125 14.4959 26.3125 13.7499C26.3125 13.004 26.0162 12.2886 25.4887 11.7612C24.9613 11.2338 24.2459 10.9374 23.5 10.9374Z" fill="#877E6E"/>
</svg>
